{"glyphs":{":":{"x_min":0,"x_max":160,"ha":160,"o":"m 40 0 q 31 0 26 5 q 20 10 20 24 q 20 30 24 38 q 28 46 35 54 q 42 61 51 66 q 60 71 69 71 q 75 71 80 66 q 85 62 85 55 q 85 47 81 37 q 77 27 70 19 q 63 11 55 6 q 47 0 40 0 z m 98 185 q 89 185 84 190 q 79 195 79 209 q 79 215 83 223 q 87 231 94 238 q 100 246 109 251 q 118 256 127 256 q 133 256 138 252 q 143 247 143 240 q 143 232 139 222 q 135 212 128 204 q 121 196 113 190 q 105 185 98 185 z"},"$":{"x_min":0,"x_max":287,"ha":287,"o":"m 224 312 q 246 309 262 300 q 277 291 277 283 q 277 269 272 252 q 266 235 259 224 q 257 222 253 224 q 249 225 249 230 q 255 249 249 267 q 241 287 216 294 q 204 268 193 244 q 182 219 171 194 q 180 183 190 173 q 201 163 210 152 q 218 140 224 126 q 230 112 230 94 q 230 76 222 60 q 213 43 196 30 q 179 16 154 8 q 129 0 96 0 l 90 0 q 84 -15 78 -30 q 72 -45 66 -62 q 60 -71 54 -72 q 47 -72 48 -63 q 55 -46 62 -30 q 68 -14 75 1 q 46 5 28 17 q 10 29 10 42 q 10 48 14 57 q 18 66 24 76 q 30 85 38 94 q 45 104 53 111 q 57 112 60 109 q 63 106 61 101 q 52 93 50 80 q 47 67 49 56 q 54 31 83 21 q 98 58 112 91 q 126 124 140 158 q 125 175 113 192 q 101 209 101 233 q 101 265 128 288 q 156 312 207 313 q 220 344 237 379 q 242 386 248 384 q 254 383 252 375 q 245 359 238 343 q 231 327 224 312 z m 182 77 q 182 100 172 116 q 163 133 151 147 q 137 115 124 83 q 111 51 97 18 q 100 17 107 17 q 142 17 162 33 q 182 49 182 77 z m 149 248 q 149 236 152 226 q 156 216 161 208 q 170 228 180 250 q 189 271 200 295 q 175 294 162 282 q 149 269 149 248 z"},"?":{"x_min":0,"x_max":296,"ha":296,"o":"m 74 0 q 65 0 60 5 q 55 10 55 24 q 55 30 59 38 q 63 46 70 54 q 76 61 85 66 q 94 71 103 71 q 109 71 114 66 q 119 62 119 55 q 119 47 115 37 q 111 27 104 19 q 97 11 89 6 q 81 0 74 0 z m 296 519 q 319 519 338 512 q 357 504 370 492 q 384 479 392 462 q 399 446 399 429 q 399 389 384 362 q 370 336 348 316 q 325 297 298 283 q 270 269 244 256 q 218 243 196 228 q 175 212 164 190 q 156 173 162 160 q 168 148 185 146 q 192 145 188 140 q 183 135 174 129 q 164 123 153 118 q 142 114 135 116 q 126 118 120 126 q 114 134 113 146 q 112 157 117 170 q 122 184 135 197 q 162 226 198 246 q 234 266 266 287 q 298 308 320 335 q 343 362 343 404 q 343 439 324 462 q 304 484 268 484 q 231 484 208 464 q 185 443 178 414 q 173 409 167 414 q 161 419 162 424 q 169 443 182 460 q 196 477 214 490 q 231 503 252 511 q 273 519 296 519 z"},"<":{"x_min":0,"x_max":301,"ha":301,"o":"m 30 138 q 25 141 30 149 q 36 157 51 162 q 67 167 94 176 q 122 185 154 195 q 185 205 216 215 q 248 225 271 232 q 277 231 272 221 q 266 211 252 206 q 242 203 221 196 q 200 189 174 181 q 149 173 122 164 q 96 155 76 148 q 106 135 146 117 q 186 99 221 83 q 226 78 216 70 q 207 63 194 65 q 180 71 158 80 q 137 90 114 100 q 91 111 68 121 q 46 131 30 138 z"},"'":{"x_min":0,"x_max":118,"ha":118,"o":"m 110 394 q 119 405 158 405 q 166 405 170 402 q 173 399 171 396 q 162 386 148 370 q 133 353 117 334 q 101 316 86 299 q 70 282 60 270 q 55 268 52 270 q 49 273 51 278 q 55 287 63 302 q 71 318 80 334 q 88 351 96 367 q 105 383 110 394 z"},"=":{"x_min":0,"x_max":301,"ha":301,"o":"m 97 194 q 112 194 134 194 q 156 195 181 195 q 206 195 232 194 q 258 194 282 193 q 286 193 286 190 q 285 186 282 182 q 279 177 274 174 q 270 170 264 170 q 218 171 167 170 q 116 170 68 168 q 62 170 68 180 q 73 191 97 194 z m 73 121 q 88 121 110 121 q 132 121 156 121 q 181 121 207 120 q 233 120 257 120 q 265 118 258 108 q 251 98 239 97 q 193 97 142 96 q 91 96 43 95 q 37 97 42 107 q 48 117 73 121 z"},"a":{"x_min":0,"x_max":327,"ha":327,"o":"m 304 63 q 306 65 309 63 q 312 61 311 57 q 293 31 271 16 q 249 0 229 0 q 206 0 200 32 q 193 65 206 110 q 179 67 148 36 q 116 6 81 0 q 57 0 44 22 q 31 44 31 73 q 31 106 47 138 q 63 171 90 197 q 116 223 148 240 q 181 256 214 256 q 249 256 269 239 q 279 246 294 251 q 310 256 322 256 q 326 256 326 251 q 303 223 286 190 q 270 156 261 126 q 252 95 250 71 q 248 47 254 38 q 259 32 271 34 q 283 37 304 63 z m 112 37 q 124 37 142 52 q 159 67 178 92 q 197 117 216 148 q 234 179 248 211 q 244 224 230 232 q 215 240 196 240 q 173 240 153 228 q 133 217 118 196 q 104 176 96 148 q 87 119 87 85 q 87 63 94 50 q 102 37 112 37 z"},"L":{"x_min":0,"x_max":675,"ha":675,"o":"m 676 645 q 707 645 726 624 q 745 602 745 571 q 745 551 736 524 q 727 498 717 481 q 713 478 708 480 q 704 482 705 487 q 711 505 710 523 q 709 541 700 556 q 691 571 672 580 q 654 590 626 590 q 588 590 560 576 q 533 563 510 530 q 487 496 467 440 q 447 384 426 300 q 391 166 329 93 q 374 76 424 62 q 473 49 533 49 q 583 49 609 67 q 635 85 652 119 q 656 122 660 120 q 663 117 662 111 q 638 57 598 28 q 558 0 491 0 q 432 0 384 18 q 335 35 289 55 q 216 0 110 0 q 70 0 50 14 q 30 28 30 49 q 30 62 40 77 q 49 92 66 105 q 83 118 106 127 q 130 136 159 136 q 196 136 232 126 q 267 117 304 103 q 321 131 337 173 q 353 215 369 276 q 392 362 424 430 q 456 499 496 546 q 535 594 580 620 q 626 645 676 645 z m 155 26 q 191 26 220 34 q 248 41 271 63 q 234 79 196 91 q 158 103 115 103 q 69 103 69 72 q 69 52 92 39 q 114 26 155 26 z"},"3":{"x_min":0,"x_max":266,"ha":266,"o":"m 186 313 q 228 313 250 292 q 271 271 271 244 q 271 204 239 178 q 207 152 144 127 q 165 131 184 125 q 202 119 216 106 q 229 93 237 74 q 245 54 245 30 q 245 -11 225 -46 q 205 -81 172 -107 q 139 -133 96 -148 q 52 -162 5 -162 q -27 -162 -42 -144 q -57 -125 -57 -94 q -56 -91 -52 -90 q -48 -88 -46 -91 q -39 -110 -16 -124 q 8 -137 50 -137 q 110 -137 149 -102 q 188 -68 188 -3 q 188 47 166 74 q 143 100 100 100 q 77 100 58 87 q 53 87 50 92 q 48 96 52 101 q 98 120 130 134 q 161 148 180 162 q 200 176 208 192 q 217 207 217 229 q 217 253 203 272 q 189 290 161 290 q 135 290 116 279 q 98 268 86 248 q 84 245 79 248 q 74 251 76 256 q 87 277 115 295 q 143 313 186 313 z"},";":{"x_min":0,"x_max":163,"ha":163,"o":"m 100 185 q 91 185 86 190 q 81 195 81 209 q 81 215 85 223 q 89 231 96 238 q 102 246 111 251 q 120 256 130 256 q 135 256 140 252 q 146 247 146 240 q 146 232 142 222 q 137 212 130 204 q 124 196 116 190 q 107 185 100 185 z m 78 73 q 83 71 87 60 q 91 50 91 38 q 91 5 66 -28 q 41 -62 1 -85 q -3 -85 -4 -82 q -5 -79 -1 -74 q 20 -61 34 -41 q 47 -21 47 2 q 47 24 36 29 q 33 32 36 40 q 40 47 47 54 q 54 62 62 68 q 71 73 78 73 z"},"J":{"x_min":0,"x_max":674,"ha":674,"o":"m 861 644 q 866 641 864 635 q 861 629 856 622 q 850 616 843 610 q 836 605 833 603 q 812 597 796 586 q 780 575 766 554 q 753 533 740 499 q 728 465 715 413 q 682 285 634 185 q 645 188 654 191 q 662 194 666 197 q 670 197 671 194 q 672 192 670 190 q 663 185 652 181 q 642 177 629 174 q 584 82 530 14 q 475 -53 414 -98 q 353 -142 287 -164 q 221 -185 155 -185 q 79 -185 40 -154 q 0 -124 0 -61 q 0 -27 18 11 q 36 49 73 83 q 110 117 166 144 q 221 172 296 185 q 301 185 301 181 q 301 177 296 175 q 175 152 115 95 q 55 38 55 -34 q 55 -95 89 -126 q 123 -157 189 -157 q 248 -157 302 -139 q 357 -121 406 -82 q 455 -43 498 19 q 542 81 580 169 q 528 171 495 206 q 462 242 462 302 q 462 364 495 425 q 528 486 583 535 q 638 584 710 614 q 783 644 861 644 z m 653 391 q 675 477 712 525 q 749 573 790 596 q 721 588 663 559 q 605 530 563 490 q 521 449 498 401 q 475 353 475 306 q 475 248 504 215 q 533 182 584 179 q 621 270 653 391 z"},"V":{"x_min":0,"x_max":694,"ha":694,"o":"m 789 526 q 789 449 754 384 q 718 318 660 256 q 603 195 531 132 q 459 70 386 -1 q 368 -1 377 30 q 396 88 408 153 q 420 218 423 282 q 426 346 419 404 q 412 462 394 506 q 375 551 343 578 q 311 604 264 604 q 196 604 152 550 q 108 497 80 387 q 78 383 74 384 q 70 385 70 389 q 83 445 102 492 q 122 539 150 572 q 177 606 214 625 q 251 644 299 644 q 345 644 378 621 q 411 598 433 558 q 455 518 465 464 q 475 409 475 346 q 475 282 464 212 q 454 143 435 73 q 505 131 561 182 q 617 233 655 282 q 693 332 714 383 q 734 434 734 492 q 734 539 714 568 q 694 597 665 597 q 647 597 636 588 q 626 580 618 562 q 608 558 608 569 q 613 583 622 596 q 632 610 642 620 q 653 631 664 638 q 675 644 684 644 q 708 644 728 634 q 747 624 760 608 q 774 591 782 570 q 789 548 789 526 z"},"\"":{"x_min":0,"x_max":212,"ha":212,"o":"m 110 394 q 119 405 158 405 q 166 405 170 402 q 173 399 171 396 q 162 386 148 370 q 133 353 117 334 q 101 316 86 299 q 70 282 60 270 q 55 268 52 270 q 49 273 51 278 q 55 287 63 302 q 71 318 80 334 q 88 351 96 367 q 105 383 110 394 z m 204 394 q 213 405 252 405 q 260 405 264 402 q 267 399 265 396 q 256 386 242 370 q 227 353 211 334 q 195 316 180 299 q 164 282 154 270 q 149 268 146 270 q 143 273 145 278 q 149 287 157 302 q 165 318 174 334 q 182 351 190 367 q 199 383 204 394 z"},"7":{"x_min":0,"x_max":326,"ha":326,"o":"m 195 313 q 229 313 261 308 q 293 304 329 298 q 343 295 354 306 q 363 316 365 321 q 369 323 372 320 q 375 316 373 309 q 325 225 284 167 q 244 109 208 61 q 171 13 138 -33 q 104 -79 70 -139 q 66 -143 58 -147 q 49 -151 38 -154 q 28 -158 18 -160 q 7 -162 -1 -162 q -5 -162 -8 -160 q -11 -157 -9 -152 q 31 -93 70 -50 q 108 -7 148 35 q 187 77 228 126 q 270 175 317 246 q 300 248 286 250 q 271 252 256 253 q 241 254 223 254 q 205 255 182 255 q 133 255 110 238 q 88 220 75 178 q 72 174 68 178 q 63 181 64 186 q 72 212 84 242 q 96 272 107 292 q 112 297 118 301 q 125 305 135 308 q 145 310 160 312 q 174 313 195 313 z"},"S":{"x_min":0,"x_max":513,"ha":513,"o":"m 50 131 q 50 174 72 204 q 95 234 134 250 q 139 252 141 247 q 143 242 140 238 q 122 228 112 207 q 101 186 101 156 q 101 95 146 60 q 191 25 263 25 q 357 25 398 62 q 438 99 438 159 q 438 215 415 258 q 392 300 364 338 q 337 375 314 413 q 291 451 291 499 q 291 527 304 553 q 316 579 338 600 q 361 620 392 632 q 423 644 460 644 q 511 644 540 622 q 570 601 570 571 q 570 554 556 530 q 541 505 526 487 q 522 485 519 488 q 516 491 517 495 q 522 503 526 514 q 529 526 529 540 q 529 556 522 570 q 515 585 502 596 q 489 606 472 612 q 455 619 436 619 q 386 619 363 595 q 340 571 340 533 q 340 503 352 476 q 363 450 380 424 q 397 397 416 370 q 436 344 453 316 q 470 287 482 256 q 493 224 493 187 q 493 148 474 114 q 454 80 420 54 q 386 29 341 14 q 296 0 244 0 q 149 0 100 37 q 50 74 50 131 z"},"}":{"x_min":0,"x_max":299,"ha":299,"o":"m 193 31 q 179 -36 136 -66 q 93 -95 6 -95 q -2 -94 -1 -88 q 0 -82 10 -81 q 67 -81 96 -58 q 125 -34 137 21 q 142 42 144 58 q 146 75 148 91 q 149 107 151 124 q 153 140 158 161 q 166 191 187 216 q 208 240 238 254 q 213 261 203 284 q 193 307 200 335 q 206 360 214 381 q 221 402 229 422 q 237 441 244 461 q 252 481 257 505 q 267 556 249 582 q 231 607 180 607 q 175 609 176 614 q 177 620 186 622 q 226 622 253 614 q 280 605 295 590 q 310 576 314 556 q 319 535 314 511 q 308 483 300 462 q 292 441 284 422 q 276 404 268 385 q 260 366 254 342 q 250 327 252 316 q 255 304 262 296 q 269 287 279 282 q 289 276 300 274 q 306 269 302 262 q 298 255 281 251 q 250 243 236 224 q 221 205 211 166 q 206 146 204 128 q 202 111 200 94 q 199 78 198 62 q 196 47 193 31 z"},"Z":{"x_min":0,"x_max":625,"ha":625,"o":"m 436 644 q 486 644 528 634 q 570 625 621 609 q 646 601 658 602 q 670 602 684 614 q 689 619 708 619 q 717 619 714 612 q 651 553 582 490 q 514 426 444 360 q 373 293 302 226 q 231 159 164 95 q 188 97 212 90 q 237 84 268 76 q 299 67 340 60 q 381 52 437 52 q 506 52 545 81 q 584 110 609 168 q 612 170 618 167 q 623 164 621 159 q 601 117 579 86 q 557 55 530 34 q 502 13 466 3 q 431 -7 386 -7 q 350 -7 321 -4 q 292 0 268 6 q 243 12 220 20 q 197 27 172 34 q 141 43 120 36 q 99 29 71 0 q 65 -2 57 4 q 49 9 52 14 q 137 94 206 160 q 274 225 338 286 q 402 348 468 410 q 533 472 612 546 q 565 562 510 576 q 454 590 397 590 q 337 590 308 559 q 280 528 270 468 q 267 463 262 464 q 258 466 257 471 q 264 509 277 541 q 290 573 311 596 q 332 619 362 632 q 393 644 436 644 z"},"x":{"x_min":0,"x_max":283,"ha":283,"o":"m 267 65 q 270 67 273 65 q 276 63 275 59 q 261 37 238 18 q 215 0 190 0 q 165 0 147 22 q 129 45 114 94 q 88 48 62 24 q 35 0 9 0 q -7 0 -7 21 q -7 49 10 80 q 12 82 15 80 q 18 78 17 75 q 11 60 16 50 q 20 40 32 40 q 68 40 109 110 q 102 135 100 156 q 98 178 97 194 q 96 210 94 218 q 93 227 88 227 q 80 227 72 216 q 64 204 59 192 q 57 189 54 190 q 50 191 51 194 q 53 203 59 214 q 65 224 74 234 q 82 243 92 250 q 103 256 115 256 q 126 256 132 247 q 137 238 140 224 q 143 210 144 191 q 146 172 149 153 q 173 197 204 226 q 234 256 262 256 q 276 256 285 248 q 294 239 294 225 q 294 216 288 201 q 281 186 274 175 q 271 173 268 175 q 266 177 266 180 q 276 196 272 208 q 267 220 252 220 q 226 220 202 201 q 179 182 153 134 q 165 86 184 57 q 202 28 221 28 q 234 28 246 39 q 257 50 267 65 z"},")":{"x_min":0,"x_max":285,"ha":285,"o":"m 41 -102 q 34 -106 29 -104 q 24 -102 29 -93 q 49 -73 72 -43 q 96 -13 114 19 q 140 63 162 120 q 183 176 198 238 q 213 300 222 363 q 230 426 230 483 q 230 499 229 518 q 228 538 226 558 q 223 577 219 596 q 215 614 210 628 q 209 637 215 639 q 221 641 226 635 q 242 598 254 552 q 266 507 271 456 q 276 406 274 352 q 271 298 258 246 q 233 140 176 52 q 119 -37 41 -102 z"},"&":{"x_min":0,"x_max":524,"ha":524,"o":"m 466 256 q 491 256 505 238 q 519 219 519 196 q 519 191 515 188 q 511 186 507 191 q 499 202 486 209 q 472 216 453 216 q 429 216 411 204 q 393 193 376 175 q 360 157 345 134 q 330 112 312 90 q 338 67 371 54 q 404 40 442 40 q 462 40 476 48 q 489 55 498 66 q 501 71 506 69 q 512 67 507 58 q 494 32 469 16 q 444 0 405 0 q 367 0 334 14 q 302 27 276 51 q 251 28 218 14 q 186 0 140 0 q 85 0 52 27 q 20 54 20 102 q 20 135 33 158 q 46 181 67 198 q 88 216 114 229 q 141 242 168 256 q 164 277 162 298 q 160 318 160 337 q 160 361 169 386 q 178 411 194 430 q 209 450 230 462 q 250 475 272 475 q 302 475 316 458 q 331 440 331 413 q 331 384 321 362 q 311 341 294 324 q 278 306 256 292 q 235 278 213 265 q 224 217 246 174 q 269 131 301 99 q 321 124 339 152 q 357 179 376 202 q 395 226 416 241 q 438 256 466 256 z m 200 367 q 200 324 209 279 q 241 299 262 326 q 284 354 284 399 q 284 420 275 434 q 266 449 246 449 q 223 449 212 430 q 200 412 200 367 z m 76 124 q 76 79 100 54 q 125 29 176 29 q 203 29 224 38 q 246 47 265 62 q 230 97 206 144 q 183 191 171 242 q 152 231 134 219 q 117 207 104 193 q 91 179 84 162 q 76 145 76 124 z"},"_":{"x_min":0,"x_max":356,"ha":356,"o":"m 33 -29 q 50 -28 86 -27 q 122 -26 164 -26 q 206 -25 246 -25 q 286 -25 312 -25 q 317 -27 314 -35 q 312 -43 303 -45 q 277 -45 239 -46 q 201 -46 158 -47 q 115 -48 71 -51 q 27 -54 -11 -58 q -16 -57 -12 -52 q -9 -48 -2 -43 q 6 -38 16 -34 q 25 -30 33 -29 z"},"v":{"x_min":0,"x_max":305,"ha":305,"o":"m 119 14 q 105 9 86 4 q 68 0 50 0 q 38 0 43 13 q 60 55 72 104 q 84 154 89 193 q 92 228 78 228 q 63 228 41 205 q 36 203 33 206 q 30 209 32 213 q 50 231 72 244 q 95 256 118 256 q 133 256 138 247 q 143 238 143 224 q 143 205 139 179 q 135 153 128 124 q 122 96 114 68 q 107 41 100 19 q 128 26 156 45 q 183 64 205 89 q 227 114 240 144 q 254 173 254 203 q 254 229 238 229 q 229 229 224 226 q 218 222 212 213 q 209 211 207 214 q 205 217 206 220 q 213 231 230 244 q 248 256 267 256 q 283 256 292 244 q 300 233 300 216 q 300 187 285 158 q 270 128 245 101 q 220 74 187 52 q 154 29 119 14 z"},"O":{"x_min":0,"x_max":646,"ha":646,"o":"m 466 644 q 520 644 562 626 q 603 609 632 578 q 661 546 676 502 q 691 458 691 406 q 691 325 658 252 q 626 178 572 122 q 518 66 448 33 q 379 0 305 0 q 248 0 204 18 q 161 35 131 66 q 101 98 86 140 q 70 182 70 232 q 70 308 102 382 q 135 456 190 514 q 244 573 316 608 q 387 644 466 644 z m 360 36 q 412 36 460 60 q 509 85 547 130 q 585 174 608 236 q 631 299 631 376 q 631 424 618 466 q 606 508 580 539 q 554 570 515 588 q 476 606 422 606 q 355 606 302 580 q 248 553 210 507 q 173 461 152 399 q 132 337 132 265 q 132 213 147 171 q 162 129 191 99 q 220 69 262 52 q 305 36 360 36 z"},"(":{"x_min":0,"x_max":260,"ha":260,"o":"m 328 637 q 334 641 339 639 q 344 637 339 628 q 319 609 296 578 q 273 548 254 517 q 228 473 206 416 q 185 359 170 297 q 155 235 146 172 q 138 109 138 52 q 138 36 139 16 q 140 -3 142 -22 q 145 -42 149 -60 q 153 -79 158 -93 q 159 -101 153 -104 q 147 -106 143 -100 q 128 -66 116 -22 q 103 22 98 72 q 92 123 94 178 q 96 233 110 289 q 136 399 192 486 q 249 572 328 637 z"},"C":{"x_min":0,"x_max":577,"ha":577,"o":"m 485 644 q 521 644 551 640 q 581 637 603 630 q 625 623 638 614 q 650 604 650 592 q 650 584 646 570 q 642 557 636 542 q 631 528 624 514 q 617 500 611 492 q 608 490 604 492 q 599 495 601 500 q 622 537 610 557 q 597 578 555 597 q 513 616 451 616 q 373 616 314 592 q 256 568 217 524 q 178 480 158 417 q 139 354 139 276 q 139 220 154 172 q 169 125 198 90 q 227 56 269 36 q 311 17 365 17 q 437 17 485 62 q 533 106 553 180 q 555 185 560 184 q 565 183 565 178 q 561 157 554 132 q 546 106 537 84 q 528 61 519 44 q 510 28 504 26 q 472 14 432 7 q 393 0 349 0 q 209 0 139 65 q 69 130 69 245 q 69 330 100 404 q 130 477 186 530 q 241 583 317 614 q 393 644 485 644 z"},"W":{"x_min":0,"x_max":845,"ha":845,"o":"m 576 34 q 580 92 574 158 q 569 223 564 284 q 559 346 559 396 q 559 447 575 476 q 541 429 512 384 q 482 338 454 289 q 426 240 400 186 q 373 131 345 67 q 330 32 326 16 q 321 0 312 0 q 304 0 302 8 q 299 15 307 34 q 335 104 352 174 q 369 244 374 307 q 379 370 373 424 q 367 478 350 518 q 332 558 304 580 q 275 603 236 603 q 198 603 170 587 q 141 571 122 544 q 102 518 92 484 q 82 449 82 411 q 80 405 76 404 q 71 403 71 408 q 69 456 83 500 q 97 543 123 576 q 149 609 188 628 q 226 648 274 648 q 336 648 372 609 q 407 570 418 504 q 430 437 418 349 q 406 261 372 163 q 399 220 432 280 q 465 340 502 397 q 540 454 581 506 q 622 557 664 596 q 669 598 672 588 q 675 578 671 572 q 655 565 643 550 q 626 528 620 494 q 613 461 612 420 q 612 380 616 336 q 620 291 624 246 q 628 202 630 160 q 632 118 628 83 q 653 119 684 152 q 715 185 747 218 q 779 251 809 284 q 839 318 862 356 q 886 393 900 436 q 915 478 915 528 q 915 561 906 580 q 896 599 879 599 q 867 599 858 587 q 850 575 842 560 q 839 558 836 560 q 833 562 833 567 q 844 597 864 620 q 885 643 905 643 q 938 643 954 617 q 971 591 971 553 q 971 495 952 448 q 934 400 904 358 q 874 317 836 279 q 797 241 757 202 q 717 163 678 120 q 640 77 610 26 q 602 14 596 7 q 589 0 581 0 q 576 0 574 3 q 573 6 573 11 q 573 16 574 22 q 576 28 576 34 z"},"A":{"x_min":0,"x_max":1015,"ha":1015,"o":"m 1021 585 q 1024 583 1024 580 q 1024 576 1018 570 q 985 534 959 488 q 933 441 915 386 q 897 331 887 270 q 877 209 877 145 q 877 97 888 70 q 900 44 929 44 q 969 44 1005 100 q 1008 102 1011 100 q 1014 98 1013 94 q 987 52 956 26 q 924 0 897 0 q 857 0 836 31 q 816 62 816 119 q 816 199 834 282 q 787 282 742 281 q 696 280 653 278 q 620 243 590 212 q 559 181 530 155 q 450 82 366 41 q 281 0 180 0 q 126 0 94 24 q 61 48 50 85 q 40 122 51 166 q 62 210 95 251 q 98 253 102 250 q 106 248 105 241 q 82 216 80 184 q 77 151 94 122 q 110 94 145 74 q 180 55 233 55 q 318 55 392 90 q 467 125 533 185 q 556 205 579 228 q 602 251 627 276 q 592 274 561 272 q 530 269 503 265 q 498 266 501 270 q 504 274 510 278 q 516 283 524 286 q 533 290 541 291 q 554 292 582 292 q 609 293 644 294 q 700 352 768 420 q 837 487 931 561 q 864 583 792 598 q 721 612 655 612 q 580 612 532 570 q 484 529 473 440 q 471 435 468 436 q 464 437 463 442 q 475 540 536 592 q 597 644 694 644 q 735 644 780 638 q 825 633 868 624 q 912 616 952 606 q 991 595 1021 585 z m 837 295 q 853 367 882 435 q 911 503 953 560 q 865 489 796 422 q 727 355 669 294 q 717 295 764 295 q 810 295 837 295 z"},"f":{"x_min":0,"x_max":173,"ha":173,"o":"m 481 727 q 500 727 514 718 q 527 708 534 693 q 541 678 540 660 q 540 642 532 624 q 524 618 522 627 q 520 647 500 662 q 480 677 436 677 q 409 677 386 672 q 363 667 342 652 q 322 637 302 608 q 282 580 260 533 q 238 486 213 417 q 188 348 158 252 q 183 253 209 253 q 235 253 260 253 q 265 251 264 247 q 263 243 255 242 q 232 241 206 240 q 180 240 154 238 q 152 233 150 228 q 149 222 147 217 q 108 92 63 4 q 18 -83 -30 -138 q -79 -193 -129 -218 q -179 -243 -228 -243 q -261 -243 -278 -227 q -296 -211 -296 -186 q -296 -159 -277 -137 q -274 -134 -272 -136 q -269 -138 -269 -141 q -274 -151 -273 -162 q -272 -174 -264 -184 q -257 -194 -242 -200 q -227 -207 -203 -207 q -157 -207 -121 -194 q -85 -180 -52 -136 q -18 -91 16 -8 q 51 75 94 215 l 100 233 q 81 231 64 228 q 47 226 31 223 q 26 224 29 228 q 32 232 38 236 q 45 240 54 244 q 63 247 71 248 q 79 249 88 250 q 96 250 105 251 q 146 375 192 465 q 237 555 285 614 q 333 672 382 700 q 432 727 481 727 z"},"Q":{"x_min":0,"x_max":602,"ha":602,"o":"m 426 645 q 481 645 522 628 q 564 611 592 582 q 621 553 636 514 q 650 475 650 431 q 650 353 615 284 q 580 214 521 160 q 462 106 384 70 q 307 34 223 23 q 249 14 280 0 q 311 -15 345 -32 q 379 -48 415 -65 q 451 -82 487 -96 q 526 -111 558 -118 q 589 -125 627 -125 q 678 -125 712 -112 q 745 -98 769 -72 q 771 -70 775 -72 q 779 -74 777 -79 q 750 -117 702 -144 q 655 -172 596 -172 q 575 -172 558 -170 q 540 -168 522 -164 q 505 -159 487 -152 q 469 -146 448 -136 q 398 -113 346 -86 q 294 -59 246 -36 q 197 -12 153 4 q 109 19 76 18 q 71 20 71 24 q 71 29 80 37 q 88 43 103 48 q 118 54 126 54 q 139 54 156 46 q 174 38 189 38 q 266 38 338 65 q 409 92 464 142 q 518 191 551 259 q 584 327 584 410 q 584 456 573 496 q 562 535 540 564 q 518 593 486 609 q 455 625 413 625 q 357 625 310 602 q 264 578 230 536 q 196 494 178 436 q 159 377 159 306 q 159 252 182 212 q 206 173 252 166 q 287 160 302 173 q 305 175 308 172 q 310 169 308 164 q 300 153 281 146 q 262 139 239 139 q 178 139 141 178 q 104 217 104 291 q 104 362 130 426 q 156 490 200 539 q 244 588 302 616 q 361 645 426 645 z"},"w":{"x_min":0,"x_max":419,"ha":419,"o":"m 365 256 q 382 256 394 238 q 406 219 406 190 q 406 151 388 116 q 371 82 345 56 q 319 30 289 15 q 259 0 234 0 q 210 0 198 15 q 187 30 187 56 q 187 80 191 111 q 195 142 200 162 q 180 136 158 100 q 136 64 114 26 q 108 15 95 8 q 82 0 70 0 q 62 0 64 11 q 71 35 76 70 q 80 106 80 140 q 80 174 76 199 q 71 224 59 229 q 52 231 43 225 q 34 219 29 208 q 27 206 24 208 q 21 211 22 215 q 27 227 46 242 q 64 256 85 256 q 109 256 120 231 q 130 206 130 149 q 130 123 128 102 q 126 80 123 64 q 143 99 161 124 q 179 149 195 170 q 201 178 206 188 q 210 199 215 218 q 216 224 224 230 q 233 235 242 238 q 252 241 259 242 q 266 242 266 237 q 250 204 242 160 q 234 117 234 80 q 234 55 246 44 q 258 32 275 32 q 293 32 310 43 q 326 54 339 72 q 352 90 360 114 q 368 139 368 166 q 368 205 353 216 q 338 227 321 213 q 317 212 315 214 q 313 217 314 220 q 317 225 324 232 q 331 238 338 244 q 346 249 354 252 q 361 256 365 256 z"},"-":{"x_min":0,"x_max":245,"ha":245,"o":"m 58 166 q 71 167 92 169 q 113 171 136 172 q 159 174 181 175 q 203 176 220 176 q 224 174 224 168 q 224 163 220 156 q 216 150 210 144 q 203 138 196 136 q 178 136 156 136 q 135 135 114 134 q 92 134 72 134 q 52 133 39 133 q 32 135 38 148 q 45 162 58 166 z"},"E":{"x_min":0,"x_max":513,"ha":513,"o":"m 288 523 q 288 488 312 464 q 336 439 393 422 q 396 420 392 414 q 389 409 383 402 q 377 396 370 391 q 363 386 359 385 q 248 390 188 338 q 127 285 127 182 q 127 147 138 117 q 148 87 168 65 q 187 43 214 30 q 242 18 277 18 q 359 18 411 56 q 463 94 486 179 q 489 184 492 182 q 496 180 497 174 q 485 118 468 81 q 452 44 438 38 q 396 19 353 10 q 310 0 252 0 q 158 0 109 42 q 60 83 60 158 q 60 206 79 246 q 98 287 132 319 q 165 351 211 373 q 257 395 312 405 q 274 421 251 448 q 228 475 228 510 q 228 537 242 562 q 255 586 281 604 q 307 622 345 633 q 383 644 432 644 q 459 644 483 639 q 507 634 526 626 q 544 618 554 608 q 565 597 565 587 q 565 579 562 567 q 558 555 552 543 q 547 531 542 520 q 536 510 533 506 q 530 504 527 506 q 524 508 525 512 q 531 523 533 536 q 535 549 529 563 q 517 588 484 606 q 452 623 408 623 q 348 623 318 596 q 288 568 288 523 z"},"s":{"x_min":0,"x_max":206,"ha":206,"o":"m 155 256 q 177 256 190 250 q 204 244 204 235 q 204 224 198 210 q 193 196 188 187 q 186 185 183 186 q 180 188 180 192 q 183 199 183 212 q 183 226 176 235 q 168 244 155 244 q 138 244 128 234 q 117 223 117 204 q 117 188 126 174 q 134 159 144 144 q 155 130 164 114 q 173 97 173 76 q 173 40 144 20 q 115 0 68 0 q 34 0 14 11 q -5 22 -5 35 q -5 39 -2 46 q 1 53 6 61 q 11 69 17 77 q 23 85 30 90 q 33 92 36 89 q 38 86 36 83 q 30 77 27 70 q 24 64 24 53 q 24 35 36 24 q 48 12 67 12 q 93 12 108 26 q 122 41 122 62 q 122 81 114 98 q 105 114 95 130 q 85 145 76 161 q 68 177 68 195 q 68 221 90 238 q 112 256 155 256 z"},">":{"x_min":0,"x_max":301,"ha":301,"o":"m 271 156 q 276 153 270 145 q 265 137 250 132 q 234 127 206 118 q 179 109 148 99 q 116 89 84 79 q 53 69 30 62 q 24 63 30 73 q 35 83 49 88 q 59 91 80 98 q 101 105 126 113 q 152 121 178 130 q 205 139 225 146 q 195 159 155 177 q 115 195 80 211 q 75 216 84 224 q 94 231 107 229 q 121 223 142 214 q 164 204 187 194 q 210 183 232 173 q 255 163 271 156 z"},"l":{"x_min":0,"x_max":150,"ha":150,"o":"m 458 743 q 473 743 482 736 q 492 728 496 716 q 499 703 496 687 q 494 671 485 655 q 483 653 480 655 q 477 657 476 660 q 478 672 468 680 q 457 688 435 688 q 394 688 352 658 q 311 627 272 577 q 233 527 199 462 q 165 397 140 328 q 115 259 100 191 q 86 123 86 67 q 86 37 103 37 q 115 37 126 47 q 138 57 153 77 q 156 79 158 76 q 161 74 160 70 q 140 40 113 20 q 86 0 64 0 q 45 0 38 11 q 30 22 30 39 q 30 86 50 156 q 70 227 104 306 q 137 384 181 462 q 225 540 272 602 q 320 665 368 704 q 416 743 458 743 z"},"8":{"x_min":0,"x_max":336,"ha":336,"o":"m 402 401 q 402 320 282 271 q 303 248 320 222 q 337 195 337 154 q 337 125 322 97 q 308 69 282 48 q 257 26 224 13 q 190 0 151 0 q 97 0 68 26 q 40 51 40 94 q 40 148 83 194 q 126 240 211 265 q 192 287 178 310 q 163 334 163 368 q 163 387 173 406 q 183 426 202 442 q 220 457 247 466 q 274 476 308 476 q 350 476 376 454 q 402 432 402 401 z m 189 28 q 232 28 258 53 q 283 78 283 123 q 283 169 264 198 q 246 227 223 252 q 153 232 125 198 q 97 163 97 118 q 97 77 120 52 q 143 28 189 28 z m 271 282 q 351 316 351 381 q 351 415 332 434 q 312 452 280 452 q 251 452 234 435 q 216 418 216 391 q 216 354 232 330 q 249 305 271 282 z"},"\\":{"x_min":0,"x_max":215,"ha":215,"o":"m 53 630 q 63 565 79 478 q 95 390 113 298 q 131 207 148 122 q 166 36 180 -24 q 180 -35 170 -40 q 161 -45 156 -37 q 143 29 126 112 q 110 195 93 283 q 76 371 60 458 q 43 546 30 621 q 32 629 40 634 q 49 638 53 630 z"},"e":{"x_min":0,"x_max":237,"ha":237,"o":"m 237 206 q 237 149 86 128 q 85 118 84 108 q 84 98 84 87 q 84 61 96 47 q 108 33 134 33 q 153 33 173 44 q 193 55 205 72 q 209 74 211 70 q 213 67 212 63 q 192 37 162 18 q 131 0 96 0 q 61 0 46 18 q 30 35 30 67 q 30 98 43 132 q 56 165 76 193 q 97 221 124 238 q 150 256 177 256 q 204 256 220 240 q 237 225 237 206 z m 150 230 q 127 230 110 208 q 94 187 88 142 q 136 147 159 160 q 182 174 182 194 q 182 209 173 220 q 164 230 150 230 z"},"b":{"x_min":0,"x_max":319,"ha":319,"o":"m 526 756 q 545 756 558 748 q 571 739 578 725 q 585 711 586 694 q 587 676 583 657 q 577 653 574 658 q 571 678 553 692 q 535 707 500 707 q 444 707 396 679 q 348 651 306 588 q 263 526 224 426 q 186 327 149 184 q 156 195 168 208 q 181 220 197 231 q 213 242 230 249 q 248 256 265 256 q 286 256 299 237 q 312 218 312 192 q 312 154 293 120 q 274 85 245 58 q 216 32 182 16 q 148 0 118 0 q 93 0 83 12 q 73 24 73 46 q 73 74 80 112 q 88 151 101 194 q 114 238 132 286 q 151 333 172 379 q 257 562 344 659 q 432 756 526 756 z m 231 223 q 216 223 199 214 q 182 204 167 184 q 152 165 142 136 q 131 107 128 69 q 126 47 134 38 q 141 29 156 29 q 175 29 194 42 q 213 54 228 74 q 244 95 254 120 q 263 145 263 170 q 263 199 254 211 q 245 223 231 223 z"},"%":{"x_min":0,"x_max":431,"ha":431,"o":"m 116 284 q 89 284 75 263 q 61 242 61 211 q 61 186 73 170 q 85 154 105 154 q 131 154 146 175 q 160 196 160 228 q 160 251 148 268 q 135 284 116 284 z m 78 123 q 54 123 37 140 q 20 156 20 184 q 20 207 30 230 q 40 253 58 272 q 75 290 98 302 q 120 313 144 313 q 170 313 186 296 q 202 279 202 253 q 202 231 191 208 q 180 185 162 166 q 145 147 123 135 q 101 123 78 123 z m 324 160 q 297 160 283 140 q 269 119 269 88 q 269 62 282 46 q 294 31 314 31 q 340 31 354 52 q 369 72 369 105 q 369 128 356 144 q 344 160 324 160 z m 287 0 q 262 0 246 16 q 229 33 229 61 q 229 84 239 107 q 249 130 266 148 q 283 167 306 178 q 328 190 353 190 q 379 190 395 173 q 411 156 411 130 q 411 108 400 85 q 389 62 372 43 q 354 24 332 12 q 310 0 287 0 z m 386 367 q 305 262 224 150 q 143 39 74 -64 q 66 -72 57 -70 q 48 -67 51 -59 q 90 -4 126 48 q 163 100 200 152 q 237 204 277 258 q 317 313 363 374 q 369 379 379 377 q 389 375 386 367 z"},"m":{"x_min":0,"x_max":462,"ha":462,"o":"m 388 210 q 388 231 373 231 q 343 231 302 176 q 261 120 226 17 q 224 11 210 6 q 195 0 182 0 q 170 0 173 9 q 179 27 190 54 q 200 81 210 110 q 219 138 226 164 q 233 189 233 203 q 233 230 216 230 q 190 230 150 176 q 111 123 74 17 q 72 11 58 6 q 44 0 33 0 q 28 0 25 2 q 22 4 24 9 q 32 31 41 58 q 50 84 59 111 q 68 138 76 164 q 83 190 89 213 q 92 231 83 231 q 75 231 64 220 q 53 209 42 194 q 39 192 36 194 q 33 197 35 200 q 50 223 71 240 q 92 256 116 256 q 132 256 138 246 q 143 236 140 222 q 136 200 132 185 q 128 170 121 151 q 147 197 178 226 q 210 256 246 256 q 264 256 274 246 q 283 236 283 222 q 283 183 269 143 q 301 198 332 227 q 362 256 405 256 q 425 256 434 246 q 442 235 442 224 q 442 207 434 186 q 427 166 418 144 q 408 121 400 98 q 393 76 393 55 q 393 30 409 30 q 425 30 452 63 q 455 65 458 62 q 460 59 458 55 q 438 30 417 15 q 396 0 376 0 q 343 0 343 38 q 343 62 350 86 q 357 111 366 134 q 374 156 381 176 q 388 196 388 210 z"},"#":{"x_min":0,"x_max":297,"ha":297,"o":"m 309 243 q 312 242 311 238 q 310 234 306 230 q 303 225 298 220 q 293 216 289 214 q 277 215 264 216 q 251 216 237 216 q 226 197 216 178 q 206 159 197 140 q 213 140 228 140 q 242 140 256 139 q 259 138 258 134 q 257 130 254 124 q 250 119 244 114 q 239 110 235 108 q 223 109 210 110 q 197 110 183 110 q 172 84 162 60 q 152 35 143 11 q 139 0 133 0 q 127 0 129 7 q 135 27 144 54 q 153 81 164 110 q 145 110 127 110 q 109 109 91 108 q 71 57 58 11 q 54 0 48 0 q 42 0 44 7 q 49 27 56 52 q 64 77 73 106 q 58 105 44 104 q 30 102 18 99 q 13 100 14 105 q 15 110 20 116 q 24 122 31 128 q 38 133 44 134 l 83 137 q 90 156 97 175 q 104 194 112 213 q 97 211 84 210 q 71 208 60 206 q 55 207 56 212 q 58 217 62 222 q 67 228 74 233 q 80 238 86 239 q 104 242 125 242 q 136 265 149 288 q 153 295 161 303 q 169 311 177 316 q 185 321 190 322 q 196 322 195 313 q 184 296 174 278 q 164 261 155 244 q 172 245 189 245 q 206 245 223 245 q 236 270 247 286 q 251 293 260 302 q 269 311 278 317 q 287 323 292 324 q 298 325 297 316 q 286 298 275 280 q 264 263 253 245 q 268 245 282 244 q 296 244 309 243 z m 104 138 q 122 139 140 140 q 158 140 176 140 q 191 178 208 216 q 191 216 174 216 q 156 215 139 214 q 129 195 120 176 q 112 157 104 138 z"},",":{"x_min":0,"x_max":122,"ha":122,"o":"m 84 70 q 89 68 93 58 q 97 47 97 35 q 97 2 72 -32 q 47 -65 7 -88 q 3 -88 2 -85 q 1 -82 5 -77 q 26 -64 40 -44 q 53 -24 53 -1 q 53 21 42 26 q 39 29 42 36 q 46 44 53 52 q 60 59 68 64 q 77 70 84 70 z"},"n":{"x_min":0,"x_max":322,"ha":322,"o":"m 314 70 q 316 72 319 70 q 322 67 321 63 q 303 38 280 19 q 256 0 233 0 q 216 0 206 11 q 197 22 197 40 q 197 75 210 116 q 222 157 243 199 q 246 206 246 214 q 246 224 237 224 q 200 224 155 174 q 110 123 72 13 q 71 10 66 8 q 60 5 53 4 q 46 2 39 1 q 32 0 28 0 q 23 0 20 2 q 18 4 20 9 q 37 52 54 104 q 72 155 85 207 q 88 217 86 222 q 84 226 79 226 q 68 226 58 216 q 48 207 40 196 q 37 194 34 197 q 32 200 33 203 q 38 210 46 219 q 55 228 66 236 q 77 245 89 250 q 101 256 113 256 q 130 256 136 246 q 141 235 138 220 q 133 198 128 178 q 122 159 114 135 q 126 157 144 178 q 161 200 182 218 q 204 235 229 246 q 254 256 282 256 q 294 256 300 250 q 307 244 307 236 q 307 222 300 211 q 279 173 264 132 q 250 92 250 60 q 250 34 267 34 q 278 34 289 43 q 300 52 314 70 z"},"h":{"x_min":0,"x_max":324,"ha":324,"o":"m 24 9 q 69 181 128 319 q 186 457 251 554 q 316 651 382 704 q 449 756 509 756 q 534 756 548 744 q 563 733 568 716 q 574 700 570 681 q 566 662 555 647 q 552 644 549 645 q 546 646 546 650 q 551 670 535 688 q 519 706 484 706 q 430 706 382 677 q 333 648 287 580 q 241 513 197 402 q 153 290 107 124 q 122 151 142 175 q 161 199 184 217 q 207 235 233 246 q 259 256 287 256 q 299 256 304 250 q 310 244 310 236 q 310 223 301 207 q 280 170 267 131 q 254 92 254 60 q 254 46 257 37 q 260 28 268 28 q 278 28 290 38 q 302 49 310 62 q 313 64 316 62 q 319 59 318 56 q 305 34 282 17 q 258 0 239 0 q 222 0 211 10 q 200 19 200 42 q 200 60 204 80 q 207 101 212 121 q 218 141 226 160 q 233 180 242 196 q 247 208 247 213 q 247 222 237 222 q 218 222 196 208 q 174 193 153 166 q 132 140 112 103 q 93 66 79 21 q 77 14 63 7 q 49 0 32 0 q 22 0 24 9 z"},"z":{"x_min":0,"x_max":241,"ha":241,"o":"m 63 67 q 86 59 110 54 q 135 48 159 48 q 184 48 198 60 q 213 72 221 93 q 224 96 228 94 q 231 92 230 88 q 197 0 133 0 q 112 0 90 5 q 69 10 47 18 q 34 22 24 18 q 14 15 -2 0 q -7 0 -10 5 q -12 10 -10 15 q 12 37 37 62 q 62 86 87 110 q 112 134 136 157 q 160 180 180 199 q 157 204 128 208 q 100 211 81 211 q 52 211 41 179 q 39 176 35 178 q 31 180 31 183 q 44 219 61 238 q 78 256 108 256 q 131 256 158 251 q 184 246 198 243 q 209 240 218 243 q 226 246 234 253 q 237 256 243 256 q 255 256 253 247 q 198 196 152 152 q 105 109 63 67 z"},"B":{"x_min":0,"x_max":665,"ha":665,"o":"m 526 364 q 556 355 580 337 q 603 319 620 296 q 636 272 645 246 q 654 221 654 197 q 654 154 638 118 q 621 82 588 56 q 554 29 502 14 q 450 0 379 0 q 266 0 182 30 q 99 61 30 118 q 27 123 32 130 q 36 136 45 141 q 54 146 64 148 q 75 150 84 146 q 103 127 122 122 q 141 116 169 121 q 195 126 212 140 q 230 155 244 186 q 259 217 274 267 q 290 317 311 393 q 332 468 364 523 q 395 578 440 616 q 434 616 428 616 q 421 617 413 617 q 380 617 348 608 q 316 599 288 581 q 259 563 236 538 q 213 512 199 479 q 196 477 194 478 q 191 480 192 485 q 204 516 228 545 q 252 574 286 596 q 320 618 363 631 q 406 644 454 644 q 461 644 467 644 q 473 644 479 643 q 500 655 523 664 q 546 674 572 680 q 577 680 577 676 q 577 673 572 671 q 536 662 506 641 q 594 630 638 591 q 681 552 681 500 q 681 470 669 445 q 657 420 636 402 q 616 384 588 374 q 559 364 526 364 z m 401 15 q 446 15 482 28 q 517 40 541 62 q 565 83 578 112 q 590 141 590 175 q 590 305 430 348 q 427 351 432 358 q 438 364 447 370 q 456 377 466 381 q 476 385 482 384 q 492 380 500 378 q 507 376 519 376 q 537 376 554 384 q 572 392 586 406 q 599 419 608 438 q 616 457 616 479 q 616 527 580 564 q 544 601 472 612 q 408 546 372 411 q 346 314 320 254 q 295 195 268 162 q 240 128 209 116 q 178 104 139 102 q 190 64 258 40 q 326 15 401 15 z"},"K":{"x_min":0,"x_max":970,"ha":970,"o":"m 571 347 q 556 263 522 198 q 489 133 442 89 q 394 45 334 22 q 275 0 208 0 q 132 0 91 32 q 50 64 50 115 q 50 156 78 191 q 105 226 153 242 q 158 243 160 240 q 162 237 160 232 q 134 218 120 193 q 105 168 105 136 q 105 88 138 58 q 172 28 234 28 q 294 28 339 44 q 384 59 416 92 q 448 126 470 180 q 491 235 505 313 q 517 382 532 428 q 547 475 564 506 q 581 537 600 555 q 620 573 642 584 q 616 594 581 600 q 546 607 504 607 q 442 607 396 586 q 350 566 322 530 q 295 493 286 444 q 277 394 289 336 q 288 331 284 330 q 280 328 278 332 q 264 394 276 451 q 288 508 322 551 q 357 594 414 620 q 471 645 548 645 q 589 645 628 636 q 667 626 698 613 q 702 607 698 602 q 694 597 678 591 q 657 582 642 566 q 626 550 614 522 q 602 494 592 451 q 582 408 571 347 z m 651 386 q 673 308 694 245 q 716 182 742 138 q 769 93 801 70 q 833 46 876 46 q 899 46 917 58 q 935 69 946 87 q 949 90 952 86 q 956 83 954 78 q 936 44 904 22 q 873 0 834 0 q 788 0 753 28 q 718 55 690 102 q 663 149 642 211 q 622 273 605 342 q 604 347 604 352 q 605 356 610 361 q 655 419 704 471 q 752 523 800 562 q 848 600 892 622 q 937 645 975 645 q 995 645 1006 630 q 1017 615 1017 594 q 1017 580 1014 561 q 1010 542 1005 528 q 997 523 995 531 q 1000 555 988 572 q 976 590 943 590 q 879 590 803 536 q 727 482 651 386 z"},"R":{"x_min":0,"x_max":870,"ha":870,"o":"m 870 76 q 872 78 876 78 q 881 78 879 73 q 858 39 830 20 q 802 0 770 0 q 726 0 695 26 q 664 51 642 94 q 619 136 604 192 q 589 248 576 309 q 576 316 580 317 q 585 320 598 324 q 612 327 623 331 q 626 332 632 330 q 639 329 648 328 q 658 326 671 326 q 684 325 701 329 q 744 339 768 374 q 792 408 792 467 q 792 496 782 522 q 773 548 754 568 q 736 587 708 600 q 681 612 644 615 q 618 582 598 533 q 577 484 560 420 q 530 310 490 230 q 451 151 403 100 q 355 49 299 24 q 243 0 182 0 q 113 0 82 32 q 50 63 50 114 q 50 160 76 195 q 103 230 141 244 q 151 248 147 237 q 89 206 89 145 q 89 96 120 66 q 151 37 213 37 q 263 37 300 48 q 338 60 369 96 q 400 131 428 197 q 455 263 485 372 q 530 538 610 615 q 517 612 450 580 q 384 547 336 478 q 332 476 329 478 q 326 480 328 485 q 375 554 454 596 q 533 639 645 644 q 682 669 727 681 q 732 681 732 678 q 732 674 727 672 q 700 665 674 644 q 716 644 749 631 q 782 618 805 596 q 828 574 840 546 q 852 518 852 488 q 852 446 836 412 q 821 378 792 354 q 764 330 724 318 q 683 307 633 312 q 648 234 666 182 q 684 129 706 98 q 727 67 754 54 q 780 41 811 41 q 845 41 870 76 z"},"T":{"x_min":0,"x_max":593,"ha":593,"o":"m 826 587 q 833 582 825 572 q 816 559 802 552 q 789 544 781 546 q 771 549 762 552 q 752 555 741 558 q 716 556 693 542 q 670 529 649 502 q 628 476 609 436 q 590 395 572 338 q 520 169 426 84 q 333 0 202 0 q 130 0 90 31 q 50 62 50 111 q 50 146 72 176 q 95 205 127 219 q 131 219 132 215 q 134 211 132 208 q 115 195 108 179 q 101 163 101 142 q 101 91 140 63 q 178 35 248 35 q 296 35 332 48 q 369 60 398 91 q 427 122 452 174 q 476 227 502 307 q 538 420 590 486 q 642 551 710 566 q 644 583 573 593 q 502 603 429 603 q 373 603 331 586 q 289 568 262 538 q 235 509 223 469 q 211 429 217 384 q 212 374 206 382 q 200 432 214 479 q 228 526 261 563 q 294 600 346 622 q 399 644 472 644 q 578 644 666 626 q 754 609 826 587 z"},"P":{"x_min":0,"x_max":821,"ha":821,"o":"m 712 642 q 758 636 795 619 q 832 602 858 576 q 883 551 897 518 q 911 486 911 450 q 911 403 892 362 q 874 321 840 291 q 807 261 759 244 q 711 226 651 226 q 586 226 543 258 q 480 123 395 62 q 310 0 212 0 q 129 0 90 42 q 50 83 50 146 q 50 165 56 184 q 63 204 75 222 q 87 239 104 253 q 122 267 144 276 q 147 278 150 276 q 152 274 150 269 q 120 253 106 226 q 92 199 92 168 q 92 141 101 116 q 110 92 130 74 q 149 56 179 46 q 209 35 251 35 q 299 35 335 47 q 371 59 400 89 q 430 119 454 170 q 479 222 504 301 q 486 330 479 364 q 480 368 483 370 q 486 372 488 369 q 495 340 509 317 q 513 330 516 344 q 520 358 524 372 q 549 461 579 520 q 609 579 647 615 q 642 616 632 616 q 526 616 454 568 q 382 519 353 419 q 350 416 346 418 q 343 421 343 428 q 377 528 456 586 q 536 644 666 644 l 682 644 q 720 669 767 681 q 772 681 772 676 q 772 672 767 670 q 737 661 712 642 z m 662 246 q 704 246 738 260 q 772 274 796 299 q 821 324 834 357 q 847 390 847 428 q 847 499 804 548 q 762 598 683 612 q 633 549 600 420 q 589 379 576 342 q 564 306 550 274 q 591 246 662 246 z"},"|":{"x_min":0,"x_max":170,"ha":170,"o":"m 110 -243 l 80 -243 l 80 645 l 110 645 z"},"t":{"x_min":0,"x_max":187,"ha":187,"o":"m 222 251 q 227 249 226 246 q 225 242 217 240 q 202 240 182 239 q 163 238 141 236 q 121 187 108 140 q 95 94 95 65 q 95 31 121 31 q 147 31 179 76 q 182 78 184 76 q 187 74 186 69 q 169 41 143 20 q 117 0 92 0 q 66 0 54 12 q 41 25 41 47 q 41 76 55 127 q 69 178 91 231 q 65 228 43 223 q 38 224 40 228 q 43 232 50 236 q 56 241 65 244 q 74 248 82 248 q 86 248 90 248 q 94 248 98 249 q 111 278 125 305 q 139 332 153 354 q 159 361 170 366 q 180 372 190 375 q 200 378 206 378 q 213 379 212 375 q 195 349 178 317 q 162 285 147 250 q 166 251 186 251 q 205 251 222 251 z"},"M":{"x_min":0,"x_max":1277,"ha":1277,"o":"m 1344 657 q 1349 657 1351 652 q 1353 646 1350 642 q 1299 592 1260 530 q 1220 469 1193 404 q 1166 339 1152 276 q 1139 212 1139 159 q 1139 105 1152 74 q 1165 44 1188 44 q 1208 44 1226 59 q 1245 74 1263 101 q 1266 103 1270 101 q 1273 99 1272 94 q 1261 77 1247 60 q 1233 44 1216 30 q 1200 17 1183 8 q 1166 0 1150 0 q 1113 0 1095 34 q 1077 68 1077 125 q 1077 172 1088 230 q 1099 287 1120 347 q 1142 407 1172 464 q 1203 522 1242 568 q 1182 523 1118 460 q 1054 397 994 326 q 935 254 884 178 q 832 102 798 30 q 796 26 790 20 q 784 15 776 10 q 768 6 760 3 q 752 0 746 0 q 738 0 740 7 q 759 162 794 283 q 830 404 878 506 q 798 386 722 292 q 645 197 568 132 q 490 68 410 34 q 330 0 245 0 q 151 0 100 47 q 50 94 50 171 q 50 222 79 262 q 108 303 159 322 q 163 324 164 320 q 166 316 164 313 q 133 293 120 267 q 108 241 108 199 q 108 166 119 136 q 130 107 151 84 q 172 62 204 49 q 236 36 278 36 q 365 36 444 76 q 524 116 600 186 q 675 255 748 349 q 820 443 892 551 q 822 575 746 592 q 669 608 598 608 q 517 608 473 562 q 429 517 419 440 q 417 435 414 436 q 410 437 409 442 q 420 541 481 593 q 542 645 640 645 q 680 645 725 640 q 770 634 814 625 q 857 616 896 606 q 936 595 966 585 q 970 586 976 588 q 980 587 981 583 q 982 579 980 576 q 966 568 956 554 q 947 541 936 521 q 886 420 856 310 q 827 201 808 89 q 854 172 916 256 q 979 339 1050 414 q 1121 489 1196 552 q 1272 615 1344 657 z"},"g":{"x_min":0,"x_max":238,"ha":238,"o":"m 241 271 q 244 273 247 270 q 250 268 249 265 q 241 254 231 245 q 221 236 206 234 q 220 218 220 195 q 220 170 212 152 q 205 133 195 117 q 185 101 175 88 q 165 74 160 60 q 154 46 156 30 q 157 13 171 -8 q 193 -42 204 -68 q 214 -94 214 -124 q 214 -149 202 -170 q 191 -192 170 -208 q 149 -225 118 -234 q 88 -244 51 -244 q -25 -244 -69 -216 q -113 -188 -113 -142 q -113 -107 -88 -80 q -64 -52 -16 -39 q -11 -39 -10 -42 q -8 -46 -10 -49 q -32 -57 -45 -73 q -58 -89 -58 -115 q -58 -166 -23 -198 q 12 -229 69 -229 q 117 -229 140 -204 q 163 -179 163 -141 q 163 -118 156 -100 q 149 -82 136 -59 q 117 -27 119 3 q 121 33 139 64 q 140 66 140 66 q 141 67 142 69 q 131 58 118 51 q 106 44 94 44 q 65 44 50 61 q 34 78 34 111 q 34 136 45 162 q 56 188 74 209 q 91 230 113 243 q 135 256 158 256 q 192 256 211 258 q 230 261 241 271 z m 161 104 q 167 118 171 133 q 175 148 175 164 q 175 192 166 209 q 156 226 135 226 q 109 226 94 204 q 78 181 78 133 q 78 75 116 75 q 127 75 140 84 q 153 92 161 104 z"},"j":{"x_min":0,"x_max":153,"ha":153,"o":"m 149 299 q 146 296 142 299 q 139 302 137 308 q 135 313 135 320 q 135 326 138 331 q 149 345 170 366 q 192 388 215 403 q 218 404 221 402 q 224 399 222 397 q 201 378 182 352 q 163 325 149 299 z m 82 215 q 61 204 43 189 q 40 187 38 190 q 36 193 37 196 q 43 202 54 210 q 66 218 80 226 q 95 235 110 242 q 125 250 138 256 q 148 256 146 247 q 111 108 66 14 q 21 -80 -30 -138 q -81 -195 -135 -220 q -189 -244 -243 -244 q -278 -244 -292 -216 q -306 -189 -295 -146 q -293 -143 -290 -143 q -287 -143 -286 -147 q -291 -176 -268 -194 q -244 -213 -196 -213 q -156 -213 -120 -196 q -84 -179 -50 -132 q -16 -85 16 -2 q 49 82 82 215 z"},"i":{"x_min":0,"x_max":166,"ha":166,"o":"m 159 299 q 156 296 152 299 q 149 302 147 308 q 145 313 145 320 q 145 326 148 331 q 159 345 180 366 q 202 388 225 403 q 227 404 230 402 q 233 399 232 397 q 211 378 192 352 q 173 325 159 299 z m 52 186 q 49 184 47 188 q 45 191 46 194 q 83 224 149 256 q 157 256 157 247 q 144 224 132 197 q 119 170 110 144 q 100 117 94 92 q 88 68 88 52 q 88 32 102 32 q 113 32 124 42 q 134 51 148 66 q 150 68 153 66 q 156 63 154 58 q 132 32 110 16 q 89 0 69 0 q 34 0 34 33 q 34 51 40 76 q 45 100 54 126 q 64 151 76 176 q 87 200 99 218 q 88 212 74 203 q 61 194 52 186 z"},"y":{"x_min":0,"x_max":313,"ha":313,"o":"m 257 227 q 261 237 279 246 q 297 256 311 256 q 320 256 318 249 q 296 187 274 128 q 253 70 230 8 q 180 -121 106 -182 q 31 -243 -53 -243 q -111 -243 -144 -216 q -177 -189 -177 -151 q -177 -129 -162 -108 q -147 -87 -121 -78 q -117 -77 -115 -80 q -113 -83 -115 -86 q -131 -103 -131 -129 q -131 -171 -105 -197 q -79 -223 -30 -223 q 5 -223 34 -212 q 63 -201 88 -173 q 114 -145 138 -98 q 162 -51 187 20 q 199 53 208 79 q 218 105 228 136 q 209 106 189 81 q 169 56 148 38 q 128 20 109 10 q 90 0 74 0 q 54 0 45 12 q 36 24 36 45 q 36 80 50 126 q 65 171 90 213 q 79 206 70 200 q 61 194 53 186 q 50 184 48 188 q 45 191 47 194 q 54 201 66 210 q 78 218 92 226 q 106 234 120 242 q 135 250 149 256 q 159 256 157 247 q 141 227 128 202 q 116 178 107 154 q 98 129 94 105 q 89 81 89 62 q 89 34 107 34 q 123 34 145 54 q 167 74 188 104 q 210 133 228 166 q 247 200 257 227 z"},"@":{"x_min":0,"x_max":513,"ha":513,"o":"m 347 75 q 387 75 414 104 q 440 134 440 191 q 440 220 430 247 q 419 274 398 294 q 378 315 348 327 q 317 339 276 339 q 234 339 200 326 q 166 313 141 288 q 116 262 102 224 q 89 185 89 134 q 89 96 101 64 q 113 31 136 8 q 159 -16 192 -30 q 226 -43 270 -43 q 327 -43 362 -24 q 398 -4 418 31 q 421 34 424 30 q 426 27 425 22 q 400 -23 352 -50 q 304 -76 242 -76 q 154 -76 102 -26 q 50 23 50 116 q 50 165 68 210 q 86 255 120 289 q 153 323 201 344 q 249 364 309 364 q 345 364 375 352 q 405 339 427 318 q 449 297 461 270 q 473 242 473 212 q 473 179 458 148 q 444 117 422 93 q 399 69 371 55 q 343 41 315 41 q 280 41 280 86 q 280 109 291 137 q 269 103 245 78 q 221 54 195 49 q 177 49 165 64 q 153 78 153 107 q 153 134 166 160 q 178 187 198 208 q 219 229 244 242 q 270 255 297 255 q 312 255 322 252 q 333 248 342 242 q 347 246 360 250 q 373 253 380 253 q 385 253 383 249 q 369 232 358 212 q 347 193 339 174 q 331 154 327 136 q 323 119 323 107 q 323 75 347 75 z m 217 81 q 226 81 240 93 q 253 105 267 124 q 281 142 295 166 q 309 189 320 213 q 316 224 306 232 q 297 239 282 239 q 266 239 250 230 q 235 222 223 206 q 211 191 204 170 q 197 148 197 121 q 197 104 203 92 q 209 81 217 81 z"},".":{"x_min":0,"x_max":120,"ha":120,"o":"m 50 0 q 41 0 36 5 q 30 10 30 24 q 30 30 34 38 q 38 46 45 54 q 52 61 61 66 q 70 71 79 71 q 85 71 90 66 q 95 62 95 55 q 95 47 91 37 q 87 27 80 19 q 73 11 65 6 q 57 0 50 0 z"},"p":{"x_min":0,"x_max":295,"ha":295,"o":"m 236 256 q 258 256 272 234 q 285 213 285 184 q 285 143 268 110 q 252 76 225 52 q 198 27 163 14 q 128 0 92 0 q 75 0 63 4 q 46 -45 32 -101 q 19 -157 19 -205 q 19 -228 41 -223 q 49 -222 56 -219 q 64 -216 71 -211 q 75 -211 76 -215 q 76 -219 74 -223 q 68 -226 56 -230 q 45 -233 32 -236 q 19 -240 6 -242 q -7 -244 -16 -244 q -24 -244 -29 -240 q -34 -236 -34 -228 q -34 -177 -18 -110 q -1 -42 25 30 q 19 38 18 43 q 17 47 33 52 q 46 88 61 124 q 76 160 91 195 q 110 236 108 246 q 107 256 96 250 q 81 242 63 222 q 61 220 58 224 q 56 227 57 229 q 64 237 75 246 q 86 256 98 264 q 111 272 123 278 q 135 283 144 283 q 155 283 158 274 q 162 264 157 253 q 144 218 123 174 q 133 188 146 202 q 159 217 174 229 q 188 241 204 248 q 220 256 236 256 z m 117 20 q 141 20 162 30 q 183 39 198 58 q 214 76 224 104 q 233 131 233 167 q 233 191 224 206 q 215 221 198 221 q 175 221 143 180 q 111 139 84 65 q 81 57 78 48 q 75 40 72 31 q 88 20 117 20 z"},"X":{"x_min":0,"x_max":813,"ha":813,"o":"m 813 644 q 830 644 840 630 q 851 617 851 590 q 851 566 840 534 q 830 502 814 479 q 810 476 806 478 q 803 481 803 486 q 813 510 813 532 q 813 558 802 572 q 791 585 764 585 q 730 585 695 568 q 660 551 626 520 q 593 490 562 448 q 531 405 505 354 q 521 284 542 228 q 564 172 590 133 q 617 94 649 73 q 681 52 720 52 q 749 52 768 69 q 788 86 800 115 q 803 118 806 116 q 810 113 810 106 q 783 46 756 23 q 729 0 694 0 q 651 0 615 22 q 579 45 550 84 q 520 123 498 174 q 477 226 464 284 q 389 142 303 71 q 217 0 131 0 q 93 0 72 16 q 50 32 50 58 q 50 68 54 84 q 59 101 67 120 q 75 139 86 159 q 97 179 111 196 q 114 200 119 198 q 124 195 122 189 q 106 166 100 145 q 95 124 98 103 q 101 80 120 67 q 138 54 173 54 q 215 54 254 72 q 292 89 327 122 q 362 155 395 202 q 428 249 459 308 q 445 373 438 424 q 430 475 423 510 q 416 546 407 565 q 398 584 381 584 q 361 584 342 562 q 324 541 310 513 q 305 508 301 510 q 297 513 298 520 q 309 544 324 566 q 339 588 355 606 q 371 623 386 634 q 401 644 413 644 q 439 644 452 620 q 465 597 472 560 q 480 522 485 474 q 490 426 500 377 q 528 436 564 485 q 600 534 641 570 q 682 605 726 624 q 769 644 813 644 z"},"*":{"x_min":0,"x_max":192,"ha":192,"o":"m 200 326 q 189 325 176 324 q 163 324 152 323 q 139 322 125 321 l 145 301 q 153 293 162 284 q 171 275 178 269 q 182 265 178 260 q 174 255 167 251 q 160 247 154 246 q 147 244 145 249 q 141 257 136 268 q 132 280 127 290 q 122 301 116 314 q 108 301 101 289 q 95 278 89 268 q 83 257 78 249 q 75 244 68 244 q 62 245 56 248 q 49 252 46 256 q 42 261 45 264 q 53 272 64 282 q 75 292 85 301 q 96 312 108 322 q 96 323 85 324 q 75 325 64 325 q 54 325 46 326 q 41 326 42 332 q 44 338 48 345 q 53 352 59 356 q 65 361 69 359 q 75 355 82 350 q 90 346 97 342 q 105 337 113 332 q 114 344 116 356 q 118 366 118 378 q 119 389 121 398 q 122 404 130 408 q 137 412 146 414 q 155 416 161 414 q 167 413 165 409 q 160 398 153 386 q 146 373 140 361 l 126 333 q 141 339 155 345 q 167 350 180 355 q 193 360 204 365 q 209 367 210 361 q 212 355 211 348 q 210 340 207 333 q 204 326 200 326 z"},"Y":{"x_min":0,"x_max":700,"ha":700,"o":"m 444 644 q 461 644 472 635 q 484 626 487 606 q 490 585 485 552 q 480 518 464 469 q 444 407 428 358 q 412 308 404 258 q 398 215 410 193 q 422 171 461 171 q 548 171 642 286 q 736 402 849 628 q 860 638 874 641 q 889 644 902 644 q 914 644 912 634 q 809 414 718 268 q 628 121 543 33 q 458 -55 375 -92 q 292 -128 203 -128 q 109 -128 58 -80 q 7 -32 7 44 q 7 82 22 118 q 38 154 68 184 q 97 213 140 233 q 183 253 239 259 q 244 258 244 254 q 243 250 238 245 q 192 239 160 224 q 127 209 106 186 q 85 163 76 134 q 66 104 66 71 q 66 -5 112 -48 q 158 -92 245 -92 q 309 -92 366 -70 q 424 -48 479 4 q 534 55 590 140 q 646 225 708 351 q 680 305 646 266 q 613 226 576 196 q 540 167 502 150 q 464 134 427 134 q 379 134 358 160 q 337 185 343 232 q 351 287 368 342 q 384 397 400 448 q 416 498 422 528 q 429 559 428 576 q 427 593 420 598 q 412 604 400 604 q 377 604 356 586 q 336 569 325 551 q 321 548 318 551 q 314 554 315 559 q 324 575 338 590 q 353 606 370 618 q 387 630 406 637 q 425 644 444 644 z"},"c":{"x_min":0,"x_max":229,"ha":229,"o":"m 198 166 q 192 164 192 171 q 199 192 190 208 q 180 224 155 224 q 123 224 104 184 q 84 144 84 80 q 84 33 121 33 q 138 33 158 46 q 179 58 196 78 q 200 80 203 77 q 206 74 204 70 q 179 38 148 19 q 117 0 82 0 q 60 0 45 16 q 30 31 30 59 q 30 94 44 130 q 59 165 82 193 q 105 221 132 238 q 159 256 185 256 q 208 256 221 243 q 234 230 234 214 q 234 208 230 201 q 227 194 222 187 q 216 180 210 174 q 203 168 198 166 z"},"!":{"x_min":0,"x_max":200,"ha":200,"o":"m 74 0 q 65 0 60 5 q 55 10 55 24 q 55 30 59 38 q 63 46 70 54 q 77 61 86 66 q 95 71 104 71 q 110 71 115 66 q 120 62 120 55 q 120 47 116 37 q 112 27 105 19 q 98 11 90 6 q 82 0 74 0 z m 329 524 q 309 483 282 428 q 255 373 228 318 q 200 262 176 212 q 152 162 137 131 q 129 122 123 124 q 117 127 120 138 q 132 165 149 210 q 166 255 184 306 q 202 356 218 406 q 234 456 244 494 q 251 505 268 516 q 285 528 301 535 q 317 542 326 540 q 336 539 329 524 z"},"/":{"x_min":0,"x_max":214,"ha":214,"o":"m 383 625 q 360 588 328 534 q 297 481 261 420 q 225 358 188 292 q 150 227 116 166 q 81 105 52 52 q 22 -1 3 -37 q 0 -41 -5 -42 q -10 -44 -14 -44 q -19 -43 -22 -40 q -25 -38 -24 -33 q -2 6 28 58 q 58 110 92 169 q 125 228 162 291 q 198 354 233 415 q 268 476 300 531 q 333 586 359 630 q 365 635 375 634 q 385 633 383 625 z"},"[":{"x_min":0,"x_max":331,"ha":331,"o":"m 248 612 q 250 623 264 623 q 288 623 308 623 q 329 623 349 623 q 369 623 390 622 q 412 622 438 621 q 447 619 442 612 q 437 605 425 604 q 401 606 369 606 q 337 606 308 606 q 259 420 217 245 q 175 70 147 -79 q 164 -79 176 -80 q 189 -80 200 -80 q 212 -80 224 -80 q 237 -79 255 -79 q 261 -82 259 -88 q 257 -95 240 -96 q 218 -96 202 -96 q 187 -96 171 -96 q 155 -95 136 -94 q 118 -94 90 -94 q 79 -94 79 -84 q 124 91 168 271 q 213 451 248 612 z"},"6":{"x_min":0,"x_max":327,"ha":327,"o":"m 391 499 q 426 499 442 479 q 457 459 452 428 q 450 425 447 424 q 444 424 442 426 q 430 446 410 456 q 389 465 357 465 q 275 465 221 405 q 167 345 126 231 q 144 258 176 275 q 207 292 241 292 q 260 292 275 284 q 290 277 300 264 q 311 251 316 235 q 322 219 322 201 q 322 165 304 130 q 286 94 258 65 q 230 36 196 18 q 161 0 128 0 q 91 0 70 28 q 50 55 50 107 q 50 144 64 188 q 77 232 100 276 q 124 319 156 360 q 189 400 227 431 q 265 462 307 480 q 349 499 391 499 z m 204 259 q 185 259 167 248 q 149 238 134 220 q 120 202 112 178 q 103 153 103 125 q 103 73 119 52 q 135 31 167 31 q 184 31 202 40 q 219 50 234 68 q 248 87 257 114 q 266 142 266 179 q 266 214 251 236 q 236 259 204 259 z"},"r":{"x_min":0,"x_max":212,"ha":212,"o":"m 136 227 q 136 212 133 193 q 130 174 125 154 q 145 202 169 229 q 193 256 221 256 q 236 256 244 249 q 252 242 252 231 q 252 221 244 205 q 237 189 232 183 q 230 182 228 184 q 226 185 226 187 q 226 194 220 199 q 215 204 204 204 q 169 204 140 156 q 112 109 88 20 q 87 15 81 12 q 75 8 68 6 q 60 3 52 2 q 44 0 38 0 q 27 0 32 12 q 41 33 50 58 q 58 82 65 107 q 72 132 77 156 q 82 179 85 199 q 87 214 86 222 q 86 230 78 230 q 68 230 58 222 q 47 213 38 200 q 34 197 30 200 q 27 202 29 206 q 35 214 44 222 q 52 231 62 238 q 73 246 84 251 q 96 256 108 256 q 124 256 130 248 q 136 241 136 227 z"},"2":{"x_min":0,"x_max":292,"ha":292,"o":"m 201 313 q 246 313 266 292 q 286 270 286 242 q 286 213 274 190 q 261 168 237 148 q 213 128 178 107 q 142 86 96 59 q 117 52 145 47 q 173 42 207 42 q 230 42 242 48 q 254 55 260 66 q 265 70 268 66 q 271 63 269 56 q 252 30 230 15 q 207 0 172 0 q 144 0 123 6 q 102 11 86 16 q 69 21 56 22 q 42 24 29 16 q 21 11 15 7 q 9 3 4 0 q -1 0 -1 6 q -1 13 4 18 q 47 46 88 69 q 129 92 160 115 q 192 138 211 164 q 230 190 230 225 q 230 251 214 267 q 199 283 172 283 q 140 283 118 261 q 97 239 90 207 q 87 204 83 207 q 79 210 79 215 q 83 233 93 250 q 103 268 118 282 q 134 296 155 304 q 176 313 201 313 z"},"{":{"x_min":0,"x_max":306,"ha":306,"o":"m 207 496 q 221 562 264 592 q 308 622 394 622 q 402 620 401 614 q 400 609 390 608 q 333 608 304 584 q 275 561 263 506 q 258 485 256 468 q 254 452 252 436 q 251 420 249 404 q 247 387 242 366 q 234 336 214 311 q 193 286 162 272 q 187 266 197 243 q 207 220 201 192 q 195 166 187 146 q 179 125 171 105 q 163 85 156 65 q 148 45 143 21 q 133 -30 152 -56 q 170 -81 221 -81 q 226 -83 224 -88 q 223 -94 214 -95 q 135 -95 106 -64 q 76 -33 86 16 q 92 44 100 64 q 108 85 116 104 q 124 123 132 142 q 140 161 146 185 q 150 200 148 212 q 145 223 138 232 q 131 240 121 246 q 111 251 100 253 q 95 258 98 265 q 102 272 119 276 q 150 284 164 303 q 179 322 189 361 q 199 401 200 432 q 200 463 207 496 z"},"9":{"x_min":0,"x_max":335,"ha":335,"o":"m 32 -151 q 1 -151 -14 -137 q -30 -123 -30 -99 q -29 -96 -26 -94 q -23 -92 -21 -94 q -13 -106 5 -114 q 23 -121 52 -121 q 91 -121 121 -109 q 151 -97 174 -72 q 197 -47 215 -8 q 233 32 249 88 q 229 59 200 40 q 171 21 133 21 q 86 21 66 42 q 45 64 45 108 q 45 144 60 180 q 75 217 100 246 q 125 276 158 294 q 192 313 229 313 q 277 313 303 286 q 329 259 329 220 q 329 147 302 80 q 276 13 234 -38 q 192 -90 139 -120 q 86 -151 32 -151 z m 167 53 q 188 53 206 66 q 225 78 240 99 q 254 120 262 146 q 271 173 271 200 q 271 237 254 261 q 238 285 200 285 q 153 285 126 246 q 100 207 100 129 q 100 53 167 53 z"}," ":{"x_min":0,"x_max":150,"ha":150,"o":""},"I":{"x_min":0,"x_max":593,"ha":593,"o":"m 777 645 q 781 643 780 638 q 778 632 773 626 q 768 619 762 613 q 755 607 749 604 q 727 598 711 586 q 695 575 682 554 q 668 533 656 500 q 644 466 631 414 q 596 279 530 185 q 543 187 554 191 q 566 195 571 198 q 574 199 575 196 q 576 194 574 191 q 566 186 552 181 q 538 176 523 174 q 460 89 378 44 q 296 0 201 0 q 128 0 89 26 q 50 52 50 93 q 50 128 78 160 q 106 191 166 206 q 171 205 172 202 q 172 199 170 197 q 109 177 109 121 q 109 79 142 54 q 175 29 234 29 q 312 29 374 62 q 436 94 483 171 q 432 174 405 210 q 378 246 378 303 q 378 365 411 426 q 444 487 499 536 q 554 585 626 615 q 699 645 777 645 z m 569 392 q 580 437 593 469 q 606 501 622 524 q 638 548 658 565 q 679 582 706 597 q 637 589 579 560 q 521 531 479 490 q 437 450 414 402 q 391 354 391 307 q 391 247 417 216 q 443 184 488 181 q 535 261 569 392 z"},"H":{"x_min":0,"x_max":904,"ha":904,"o":"m 1129 681 q 1174 681 1174 637 q 1174 623 1169 604 q 1164 586 1159 575 q 1153 573 1151 579 q 1159 602 1146 618 q 1132 635 1090 635 q 1046 635 1010 614 q 975 593 943 546 q 911 499 881 423 q 851 347 820 237 q 834 233 846 230 q 858 226 870 223 q 872 221 868 217 q 863 213 855 209 q 847 205 836 202 q 825 199 815 200 q 814 200 810 202 q 807 191 804 182 q 802 172 799 161 q 768 44 812 44 q 851 44 887 100 q 890 103 893 101 q 896 99 895 94 q 884 77 870 60 q 857 44 842 30 q 827 17 811 8 q 795 0 781 0 q 744 0 729 30 q 714 60 731 127 q 737 151 743 174 q 749 196 757 218 q 698 235 630 248 q 561 261 490 267 q 434 125 352 62 q 270 0 173 0 q 110 0 80 26 q 50 53 50 92 q 50 130 74 166 q 97 202 143 230 q 189 257 258 274 q 327 291 417 291 l 443 291 q 447 305 451 319 q 455 333 460 349 q 476 408 493 448 q 510 489 527 516 q 544 543 562 559 q 580 575 599 585 q 573 594 537 602 q 501 609 460 609 q 413 609 382 596 q 350 583 332 560 q 314 538 310 508 q 305 477 312 443 q 311 438 308 437 q 305 436 302 440 q 293 482 302 520 q 311 557 336 585 q 362 613 404 629 q 447 645 506 645 q 548 645 587 636 q 626 626 657 613 q 661 607 656 602 q 652 597 637 591 q 617 583 603 569 q 589 555 577 531 q 565 507 554 472 q 542 437 529 387 q 522 361 514 336 q 507 311 498 288 q 564 283 634 273 q 703 263 767 249 q 801 351 844 432 q 888 512 935 568 q 982 623 1032 652 q 1081 681 1129 681 z m 201 24 q 245 24 279 36 q 313 49 340 78 q 368 106 391 154 q 414 201 437 271 q 423 272 409 272 q 395 272 381 272 q 306 272 252 260 q 199 247 166 226 q 132 204 116 175 q 100 146 100 112 q 100 69 126 46 q 153 24 201 24 z"},"4":{"x_min":0,"x_max":372,"ha":372,"o":"m 463 491 q 449 476 438 462 q 428 449 418 435 q 409 421 400 406 q 392 391 382 373 q 359 331 336 280 q 313 228 292 170 l 305 170 q 340 170 361 179 q 382 188 391 205 q 393 207 396 204 q 400 202 399 197 q 380 162 354 146 q 327 130 277 129 q 258 74 245 20 q 243 15 236 10 q 228 6 220 2 q 211 -1 202 -4 q 193 -6 188 -6 q 178 -6 177 0 q 188 32 199 65 q 210 98 223 132 q 190 135 163 140 q 136 145 116 148 q 95 152 80 153 q 66 154 58 148 q 54 145 50 141 q 46 139 42 141 q 38 143 40 148 q 83 201 134 251 q 185 301 238 346 q 292 392 346 432 q 401 471 452 503 q 457 504 461 500 q 465 496 463 491 z m 239 172 q 267 241 298 306 q 328 370 359 422 q 283 368 220 314 q 156 259 98 193 q 126 185 162 180 q 197 174 239 172 z"},"~":{"x_min":0,"x_max":383,"ha":383,"o":"m 51 140 q 74 169 100 188 q 126 206 155 206 q 173 206 187 200 q 201 194 215 188 q 229 181 244 175 q 260 169 281 169 q 301 169 316 178 q 332 188 351 208 q 356 210 360 208 q 363 205 361 199 q 336 170 309 151 q 282 132 253 132 q 231 132 215 138 q 199 144 186 150 q 172 157 159 163 q 146 169 130 169 q 107 169 92 160 q 77 150 60 130 q 55 128 52 132 q 49 135 51 140 z"},"D":{"x_min":0,"x_max":817,"ha":817,"o":"m 587 594 q 636 567 678 530 q 719 492 749 447 q 779 402 796 353 q 812 304 812 255 q 812 200 791 153 q 770 106 732 72 q 694 38 640 19 q 587 0 522 0 q 484 0 451 4 q 418 9 388 16 q 359 24 332 34 q 304 43 277 52 q 239 25 192 12 q 146 0 89 0 q 57 0 44 8 q 30 15 30 28 q 30 41 40 56 q 49 72 66 85 q 84 98 108 106 q 131 115 160 115 q 199 115 232 108 q 264 101 296 90 q 331 130 362 198 q 393 266 427 372 q 447 434 470 482 q 494 530 525 565 q 485 585 440 596 q 396 606 348 606 q 304 606 272 593 q 239 580 217 558 q 195 536 182 507 q 169 478 164 446 q 162 444 159 445 q 156 446 156 450 q 160 491 178 526 q 196 562 226 588 q 257 614 299 629 q 341 644 394 644 q 440 644 483 634 q 526 623 566 604 q 592 625 622 639 q 653 653 691 661 q 694 661 694 658 q 694 654 691 652 q 632 636 587 594 z m 123 18 q 165 18 198 26 q 232 35 261 57 q 228 67 193 74 q 158 81 116 81 q 93 81 82 73 q 72 65 72 51 q 72 36 84 27 q 97 18 123 18 z m 571 33 q 667 33 712 84 q 757 134 757 224 q 757 271 742 318 q 727 365 700 408 q 673 451 635 488 q 597 525 550 552 q 505 491 473 393 q 438 282 400 206 q 363 131 315 83 q 340 74 366 66 q 393 57 424 50 q 455 42 491 38 q 527 33 571 33 z"},"^":{"x_min":0,"x_max":278,"ha":278,"o":"m 181 361 q 191 373 198 359 q 212 321 228 282 q 243 244 257 209 q 258 204 255 198 q 252 191 247 186 q 242 181 236 178 q 230 175 227 178 q 213 212 198 248 q 184 284 171 314 q 144 279 114 242 q 84 205 60 178 q 56 175 52 178 q 49 182 52 188 q 75 220 109 264 q 143 308 181 361 z"},"0":{"x_min":0,"x_max":383,"ha":383,"o":"m 227 284 q 199 284 176 273 q 154 262 138 244 q 122 225 114 200 q 105 174 105 144 q 105 90 130 60 q 154 31 199 31 q 250 31 284 68 q 318 106 318 172 q 318 220 296 252 q 274 284 227 284 z m 165 0 q 117 0 86 28 q 55 56 55 104 q 55 141 71 178 q 87 216 114 246 q 142 276 179 294 q 216 313 258 313 q 308 313 338 284 q 368 256 368 210 q 368 169 351 132 q 334 94 306 64 q 278 35 242 18 q 205 0 165 0 z"},"F":{"x_min":0,"x_max":645,"ha":645,"o":"m 852 610 q 856 607 853 600 q 850 594 844 588 q 837 581 828 576 q 819 571 812 571 q 788 573 764 576 q 739 579 715 583 q 694 577 678 566 q 663 554 650 535 q 638 516 628 488 q 617 459 606 418 q 599 395 593 373 q 587 351 579 331 l 682 331 q 687 329 686 326 q 684 324 676 322 q 650 321 625 320 q 600 320 575 319 q 515 154 422 77 q 330 0 201 0 q 129 0 90 34 q 50 68 50 128 q 50 163 70 193 q 91 223 129 240 q 133 240 135 236 q 137 233 135 230 q 117 216 108 200 q 100 183 100 154 q 100 128 109 106 q 118 85 137 68 q 156 52 186 43 q 216 34 258 34 q 306 34 342 46 q 379 58 409 90 q 439 121 465 176 q 491 231 518 317 q 467 315 419 311 q 371 307 325 300 q 322 301 326 304 q 330 308 338 312 q 345 316 354 320 q 363 323 368 324 q 443 328 522 330 q 527 346 532 363 q 537 380 542 398 q 564 479 598 522 q 632 566 691 587 q 637 595 588 602 q 538 608 493 608 q 418 608 369 580 q 320 551 297 482 q 294 479 291 481 q 288 483 288 488 q 310 559 374 602 q 439 645 534 645 q 571 645 608 641 q 646 637 685 632 q 724 626 766 620 q 807 614 852 610 z"},"`":{"x_min":0,"x_max":155,"ha":155,"o":"m 133 325 q 135 323 133 320 q 131 316 126 316 q 100 323 70 335 q 40 347 20 360 q 18 361 18 364 q 18 366 20 368 q 33 379 48 384 q 64 389 67 386 q 79 372 97 355 q 115 338 133 325 z"},"k":{"x_min":0,"x_max":291,"ha":291,"o":"m 176 132 q 187 79 204 50 q 222 22 247 22 q 258 22 267 27 q 276 32 287 46 q 290 47 292 44 q 295 42 294 39 q 263 0 216 0 q 178 0 158 34 q 139 67 127 134 q 124 142 131 144 q 149 140 167 143 q 185 146 200 154 q 214 162 222 175 q 231 188 231 204 q 231 229 206 229 q 171 229 141 196 q 111 162 97 97 q 92 80 88 62 q 84 43 81 29 q 79 21 77 18 q 75 14 68 10 q 60 6 48 3 q 36 0 30 0 q 23 0 24 10 q 45 121 78 220 q 110 318 150 401 q 190 484 236 550 q 281 616 327 662 q 373 707 418 732 q 463 756 503 756 q 528 756 542 746 q 557 736 562 720 q 567 705 564 687 q 560 669 549 654 q 542 647 540 657 q 545 677 530 696 q 515 715 480 715 q 426 715 376 684 q 325 652 278 586 q 231 519 188 416 q 146 312 109 168 q 128 205 160 230 q 191 256 234 256 q 263 256 272 242 q 282 227 282 213 q 282 181 252 158 q 222 136 176 132 z"},"u":{"x_min":0,"x_max":332,"ha":332,"o":"m 74 0 q 32 0 32 46 q 32 62 36 83 q 39 104 46 126 q 54 149 64 172 q 74 195 88 216 q 77 209 67 202 q 57 194 49 186 q 46 184 44 188 q 41 191 43 194 q 60 212 92 231 q 123 250 152 261 q 157 261 160 258 q 162 256 160 252 q 128 210 108 161 q 89 112 89 66 q 89 37 107 37 q 120 37 139 54 q 158 72 179 100 q 200 129 222 165 q 243 201 261 238 q 264 244 278 250 q 293 256 308 256 q 323 256 317 248 q 303 222 292 200 q 282 177 275 155 q 268 133 264 110 q 261 88 261 61 q 261 29 278 29 q 295 29 316 59 q 319 61 322 59 q 325 57 324 53 q 307 27 286 14 q 266 0 249 0 q 207 0 207 49 q 207 100 225 150 q 187 81 145 40 q 103 0 74 0 z"},"]":{"x_min":0,"x_max":352,"ha":352,"o":"m 208 -86 q 206 -92 203 -94 q 200 -96 192 -96 q 168 -96 148 -96 q 127 -96 107 -96 q 87 -96 65 -96 q 43 -95 18 -95 q 9 -93 14 -86 q 19 -78 31 -77 q 55 -79 87 -80 q 119 -80 148 -79 q 197 107 240 282 q 282 456 309 605 q 292 606 280 606 q 267 607 256 607 q 245 607 232 606 q 220 606 202 606 q 195 608 197 614 q 199 621 216 623 q 238 623 254 622 q 269 622 285 622 q 301 622 320 622 q 338 621 366 620 q 377 620 377 611 q 355 524 332 434 q 309 345 288 256 q 266 167 246 80 q 225 -6 208 -86 z"},"U":{"x_min":0,"x_max":765,"ha":765,"o":"m 427 579 q 401 589 362 597 q 323 605 281 605 q 223 605 180 580 q 138 556 112 516 q 87 475 80 423 q 72 371 83 316 q 82 312 78 310 q 74 308 72 312 q 58 375 70 434 q 81 494 114 540 q 148 587 202 616 q 255 644 326 644 q 368 644 407 635 q 446 626 477 612 q 482 608 474 600 q 421 558 380 506 q 340 453 312 394 q 283 336 268 274 q 254 213 254 153 q 254 96 276 69 q 297 42 341 42 q 393 42 442 76 q 492 110 544 181 q 596 252 654 362 q 712 471 780 622 q 784 630 803 637 q 822 644 844 644 q 860 644 860 637 q 842 616 820 578 q 798 539 776 490 q 754 442 734 387 q 713 332 697 280 q 681 227 672 180 q 662 134 662 101 q 662 44 700 44 q 737 44 774 100 q 777 103 780 100 q 784 98 783 93 q 756 50 726 25 q 695 0 667 0 q 638 0 620 20 q 602 39 602 78 q 602 128 617 197 q 632 266 664 346 q 573 175 484 88 q 394 0 306 0 q 251 0 220 34 q 190 68 190 125 q 190 179 206 238 q 222 298 252 357 q 282 416 326 472 q 370 529 427 579 z"},"o":{"x_min":0,"x_max":258,"ha":258,"o":"m 179 256 q 214 256 231 235 q 248 214 248 186 q 248 147 232 114 q 217 80 194 54 q 172 29 146 14 q 120 0 99 0 q 65 0 48 20 q 30 41 30 73 q 30 102 42 134 q 55 166 76 193 q 96 220 123 238 q 150 256 179 256 z m 124 31 q 155 31 176 64 q 198 96 198 153 q 198 183 186 203 q 174 223 151 223 q 119 223 99 192 q 79 161 79 101 q 79 66 92 48 q 104 31 124 31 z"},"N":{"x_min":0,"x_max":993,"ha":993,"o":"m 1219 644 q 1251 644 1266 618 q 1280 593 1280 542 q 1279 536 1274 535 q 1269 534 1267 540 q 1265 556 1252 571 q 1239 586 1209 586 q 1177 586 1144 561 q 1111 536 1080 494 q 1048 452 1020 396 q 993 339 972 276 q 950 213 937 146 q 924 80 922 18 q 922 7 920 4 q 918 0 913 0 q 908 0 906 4 q 904 9 902 15 q 857 180 793 307 q 729 434 648 509 q 626 386 586 291 q 545 196 490 132 q 436 67 370 34 q 303 0 229 0 q 182 0 147 12 q 112 23 89 43 q 66 63 54 90 q 43 117 43 149 q 43 189 62 228 q 82 266 119 290 q 124 292 126 288 q 128 284 126 279 q 108 261 98 238 q 87 216 87 191 q 87 128 129 90 q 171 52 255 52 q 399 52 496 170 q 593 289 628 527 q 583 563 536 582 q 489 602 438 602 q 390 602 358 580 q 327 558 313 532 q 310 529 306 530 q 303 531 302 536 q 311 555 328 574 q 345 594 368 610 q 390 625 418 634 q 445 644 475 644 q 517 644 558 630 q 598 615 636 588 q 638 594 642 602 q 646 609 650 615 q 655 621 658 624 q 662 626 663 622 q 662 609 661 596 q 660 584 658 572 q 702 537 742 488 q 781 440 814 383 q 848 326 875 262 q 902 199 921 134 q 929 189 945 248 q 961 307 984 364 q 1007 420 1034 471 q 1062 522 1092 560 q 1123 599 1155 622 q 1187 644 1219 644 z"},"+":{"x_min":0,"x_max":301,"ha":301,"o":"m 269 156 q 273 156 272 152 q 272 149 269 145 q 266 141 261 138 q 256 134 250 133 l 169 133 q 161 111 154 90 q 147 70 140 50 q 138 44 133 40 q 128 35 122 34 q 117 32 113 34 q 109 35 109 39 q 116 63 123 86 q 130 110 138 133 q 117 133 96 132 q 75 132 55 131 q 48 133 54 144 q 60 154 84 157 q 96 158 112 158 q 128 158 147 158 q 155 180 162 201 q 170 222 178 243 q 179 247 184 250 q 190 254 196 256 q 202 257 206 256 q 211 255 211 251 q 202 226 194 203 q 185 180 177 158 q 200 157 224 157 q 247 157 269 156 z"},"G":{"x_min":0,"x_max":610,"ha":610,"o":"m 575 605 q 507 605 450 576 q 394 548 354 498 q 313 449 290 382 q 268 316 268 239 q 268 171 292 136 q 317 101 368 101 q 427 101 470 134 q 513 166 530 226 q 532 234 543 240 q 554 245 566 247 q 578 249 588 248 q 598 246 598 240 q 566 127 522 46 q 478 -35 423 -86 q 368 -138 303 -162 q 238 -186 165 -186 q 66 -186 14 -145 q -37 -104 -37 -34 q -37 8 -11 44 q 15 80 69 100 q 74 102 75 96 q 76 91 72 87 q 48 73 36 50 q 25 28 25 -10 q 25 -85 68 -126 q 112 -168 191 -168 q 245 -168 291 -152 q 337 -135 376 -98 q 415 -62 447 -2 q 479 57 506 143 q 475 117 436 100 q 396 82 348 82 q 200 82 200 216 q 200 262 216 312 q 231 361 259 408 q 287 456 326 498 q 365 541 412 573 q 458 605 511 624 q 564 643 621 643 q 669 643 698 622 q 727 601 727 569 q 727 558 720 543 q 713 528 702 512 q 692 497 681 482 q 670 468 663 457 q 660 455 656 458 q 652 460 653 464 q 667 486 674 503 q 680 520 680 540 q 680 568 654 586 q 629 605 575 605 z"},"q":{"x_min":0,"x_max":302,"ha":302,"o":"m 208 -216 q 212 -216 211 -221 q 210 -226 208 -228 q 193 -233 168 -238 q 144 -244 123 -244 q 95 -244 101 -206 q 105 -179 114 -141 q 123 -103 136 -61 q 148 -19 163 22 q 178 62 193 93 q 180 76 164 60 q 149 44 133 31 q 117 18 102 10 q 86 2 73 0 q 51 0 38 16 q 25 31 25 62 q 25 96 41 130 q 57 165 84 193 q 112 221 150 238 q 187 256 230 256 q 244 256 257 252 q 270 248 279 240 q 284 244 291 246 q 298 248 305 248 q 312 248 316 247 q 321 246 321 244 q 288 197 261 141 q 234 85 213 27 q 192 -31 178 -86 q 165 -142 161 -188 q 159 -205 162 -214 q 166 -222 178 -222 q 191 -222 208 -216 z m 102 35 q 112 35 128 47 q 144 59 161 76 q 178 93 192 111 q 207 129 214 142 q 228 166 236 180 q 243 194 252 211 q 251 221 240 230 q 230 240 210 240 q 181 240 157 226 q 133 213 116 190 q 99 166 89 135 q 79 104 79 69 q 79 35 102 35 z"},"d":{"x_min":0,"x_max":317,"ha":317,"o":"m 618 756 q 633 756 642 748 q 652 740 656 727 q 660 714 658 698 q 656 681 648 665 q 646 663 643 664 q 640 664 639 668 q 641 683 631 690 q 621 698 603 698 q 549 698 499 662 q 449 626 404 552 q 360 477 322 362 q 285 248 255 90 q 250 68 254 52 q 258 37 269 37 q 280 37 290 46 q 300 55 308 69 q 310 71 314 69 q 317 67 316 63 q 311 53 302 42 q 292 31 280 22 q 269 12 256 6 q 244 0 234 0 q 212 0 203 16 q 194 32 196 52 q 198 69 201 84 q 204 99 208 116 q 188 73 152 42 q 116 10 81 0 q 58 0 44 17 q 30 34 30 61 q 30 100 44 136 q 58 171 82 198 q 106 225 139 241 q 172 257 210 257 q 231 257 247 250 q 265 304 290 362 q 315 421 345 477 q 375 533 408 584 q 442 635 477 673 q 512 711 548 734 q 584 756 618 756 z m 113 39 q 124 39 139 50 q 154 62 170 82 q 186 101 200 126 q 214 152 224 181 q 228 190 231 200 q 234 209 236 218 q 232 230 220 236 q 209 241 195 241 q 174 241 154 228 q 134 216 119 194 q 104 172 94 142 q 85 112 85 76 q 85 60 92 50 q 100 39 113 39 z"},"1":{"x_min":0,"x_max":204,"ha":204,"o":"m 52 -6 q 39 -6 41 3 q 53 35 67 69 q 81 103 96 137 q 112 171 127 203 q 142 235 155 263 q 131 257 110 252 q 90 247 73 247 q 68 248 69 253 q 70 258 76 261 q 95 263 117 269 q 139 275 160 284 q 182 293 202 304 q 222 316 237 328 q 242 330 246 328 q 249 326 249 321 q 224 288 202 249 q 180 210 162 170 q 143 129 130 88 q 116 48 107 13 q 102 5 86 0 q 69 -6 52 -6 z"},"5":{"x_min":0,"x_max":250,"ha":250,"o":"m 125 163 q 170 144 197 109 q 224 74 224 34 q 224 -2 208 -36 q 191 -70 161 -96 q 131 -123 89 -138 q 47 -154 -5 -154 q -70 -154 -70 -94 q -69 -89 -64 -88 q -60 -87 -58 -90 q -48 -107 -20 -117 q 8 -127 44 -127 q 104 -127 136 -89 q 169 -51 169 9 q 169 47 148 77 q 126 107 88 118 q 75 123 73 134 q 71 144 76 164 q 85 197 100 236 q 115 274 130 305 q 135 310 146 310 q 166 311 189 312 q 212 312 236 313 q 281 316 289 333 q 291 337 295 335 q 299 333 299 328 q 290 295 277 282 q 264 269 232 267 q 224 267 212 266 q 201 266 189 265 q 177 264 166 264 q 154 263 147 263 q 126 262 122 250 q 117 240 114 230 q 110 219 106 205 q 101 188 106 179 q 110 170 125 163 z"}}}
